<svg width="269" height="452" viewBox="0 0 269 452" fill="none" xmlns="http://www.w3.org/2000/svg">
<g opacity="0.9">
<path opacity="0.6" d="M121.983 436.549L25.771 381.122C18.8987 377.198 19.8805 370.331 27.7345 365.671L120.265 312.451C128.119 307.792 140.145 307.301 147.017 311.225L242.984 366.652C249.856 370.576 248.874 377.443 241.02 382.103L148.735 435.323C140.881 439.983 128.855 440.473 121.983 436.549Z" fill="#0C0F38"/>
<path d="M133.518 452C128.119 452 123.21 451.019 119.283 448.812L5.89051 383.329C1.9635 381.122 0 377.934 0 374.5C0 370.331 2.94526 366.407 8.34489 363.219L117.074 300.434C126.646 294.793 141.372 294.303 149.717 299.208L263.109 364.69C267.036 366.897 269 370.086 269 373.519C269 377.689 266.055 381.613 260.655 384.801L151.926 447.585C146.772 450.283 139.9 452 133.518 452ZM120.51 446.604C128.364 451.019 141.863 450.529 150.699 445.378L259.428 382.594C263.846 379.896 266.546 376.708 266.546 373.274C266.546 370.576 264.828 368.124 261.637 366.407L148.245 300.925C140.636 296.51 126.891 297.001 118.056 302.151L9.32664 365.181C4.90876 367.878 2.20894 371.067 2.20894 374.5C2.20894 377.198 3.92701 379.651 7.1177 381.367L120.51 446.604Z" fill="url(#paint0_linear_190_46)"/>
<path d="M247.647 317.602H200.032L146.772 286.945C139.9 283.021 127.873 283.512 120.019 288.171L68.7226 317.602H21.3531V349.484C21.1077 352.182 22.5803 354.635 26.0164 356.597L122.228 412.024C129.1 415.948 141.127 415.457 148.981 410.798L241.266 357.578C245.438 355.125 247.647 352.182 247.647 349.239V317.602Z" fill="url(#paint1_linear_190_46)"/>
<path d="M241.02 355.616L148.735 408.836C140.881 413.495 128.855 413.986 121.983 410.062L25.7709 354.635C22.5803 352.673 21.1076 350.22 21.1076 347.523V349.73C20.8622 352.428 22.3348 354.88 25.7709 356.842L121.983 412.269C128.855 416.193 140.881 415.703 148.735 411.043L241.02 357.823C245.192 355.371 247.401 352.428 247.401 349.485V347.277C247.401 350.22 245.192 353.163 241.02 355.616Z" fill="url(#paint2_linear_190_46)"/>
<path d="M24.2984 351.692V319.809H71.9133L123.21 290.379C131.064 285.719 143.09 285.228 149.963 289.152L202.977 319.809H247.647V317.602H200.032L146.772 286.945C139.9 283.021 127.873 283.512 120.019 288.171L68.7226 317.602H21.3531V349.484C21.1077 352.182 22.5803 354.635 26.0164 356.597L26.5073 356.842C24.7892 355.37 24.2984 353.654 24.2984 351.692Z" fill="#D4088C"/>
<path d="M244.947 320.054V351.937C244.947 353.654 243.965 355.125 242.738 356.842C245.929 354.635 247.647 352.182 247.647 349.484V317.847C246.665 318.583 245.683 319.318 244.947 320.054Z" fill="#6EE8FC"/>
<path d="M121.983 380.141L25.771 324.714C18.8987 320.79 19.8805 313.923 27.7345 309.263L120.265 256.043C128.119 251.384 140.145 250.893 147.017 254.817L242.984 310.489C249.856 314.413 248.874 321.281 241.02 325.94L148.735 379.16C140.881 383.575 128.855 384.065 121.983 380.141Z" fill="url(#paint3_linear_190_46)"/>
<path d="M242.984 310.489L146.772 255.062C143.336 253.1 138.427 252.119 133.273 252.365C136.954 252.61 140.39 253.346 143.09 255.062L239.302 310.489C246.174 314.413 245.192 321.281 237.338 325.94L145.054 379.16C141.127 381.367 136.463 382.594 131.8 382.839C137.691 383.084 143.827 381.858 148.735 379.16L241.02 325.94C249.12 321.281 249.856 314.413 242.984 310.489Z" fill="#6EE8FC"/>
<path d="M125.173 364.2L53.5055 322.997C48.3513 320.054 49.0876 314.904 54.9781 311.47L123.701 271.74C129.591 268.306 138.427 268.061 143.581 271.004L215.249 312.206C220.403 315.149 219.667 320.3 213.776 323.733L145.054 363.464C139.163 366.897 130.328 367.143 125.173 364.2Z" fill="url(#paint4_linear_190_46)"/>
<path d="M127.873 351.446L76.0858 321.526C72.4042 319.318 72.8951 315.64 77.0676 313.187L126.646 284.493C130.818 282.04 137.445 281.795 141.127 284.002L192.914 313.923C196.596 316.13 196.105 319.809 191.933 322.261L142.109 350.711C137.936 353.163 131.555 353.408 127.873 351.446Z" fill="#6DE0F6"/>
<path d="M126.401 380.141L30.1889 324.714C23.3166 320.79 24.2984 313.923 32.1524 309.263L124.437 256.043C128.119 253.836 132.782 252.61 137.445 252.365C131.555 251.874 125.173 253.1 120.019 256.043L27.7345 309.263C19.8805 313.923 18.8987 320.79 25.771 324.714L121.983 380.141C125.664 382.103 130.573 383.084 135.727 382.839C132.291 382.594 128.855 381.613 126.401 380.141Z" fill="#D4088C"/>
<path d="M76.822 317.111L126.646 288.417C130.818 285.964 137.445 285.719 141.127 287.926L192.914 317.847C193.651 318.337 194.387 318.828 194.632 319.564C195.859 317.602 195.369 315.394 192.914 313.923L141.127 284.002C137.445 281.795 131.064 282.04 126.646 284.493L76.822 313.187C73.3859 315.149 72.4042 317.847 73.8768 319.809C74.6131 318.828 75.5949 317.847 76.822 317.111Z" fill="#267FE5"/>
<path d="M76.8221 322.016L126.646 293.322C130.818 290.869 137.445 290.624 141.127 292.831L192.914 322.752C193.651 323.242 194.141 323.488 194.387 323.978C196.105 321.771 195.614 319.318 192.914 317.847L141.127 287.926C137.445 285.719 131.064 285.964 126.646 288.417L76.8221 317.111C73.3859 319.073 72.4042 322.016 74.3677 324.223C74.8586 323.488 75.8403 322.752 76.8221 322.016Z" fill="#25BFEC"/>
<path d="M74.8585 329.619C75.3494 329.128 76.0857 328.393 76.822 327.902L126.646 299.208C130.818 296.755 137.445 296.51 141.127 298.717L193.16 328.638C193.65 328.883 193.896 329.129 194.141 329.374C196.35 327.166 196.105 324.469 193.16 322.752L141.372 292.831C137.691 290.624 131.309 290.869 126.891 293.322L77.0674 322.016C73.1404 324.223 72.4041 327.412 74.8585 329.619Z" fill="#18D0F7"/>
<path opacity="0.2" d="M195.614 0H73.386V317.847C73.386 319.073 74.1223 320.545 75.8404 321.526L127.628 351.447C131.309 353.654 137.691 353.409 142.109 350.956L191.932 322.262C194.141 321.035 195.369 319.319 195.369 317.847V0H195.614Z" fill="url(#paint5_linear_190_46)"/>
<path d="M146.036 218.029C146.036 219.746 144.563 221.218 142.845 221.218C141.127 221.218 139.654 219.746 139.654 218.029C139.654 216.313 141.127 214.841 142.845 214.841C144.808 214.596 146.036 216.067 146.036 218.029Z" fill="#6DE0F6"/>
<path d="M125.664 197.919C126.884 197.919 127.873 196.93 127.873 195.711C127.873 194.492 126.884 193.504 125.664 193.504C124.444 193.504 123.455 194.492 123.455 195.711C123.455 196.93 124.444 197.919 125.664 197.919Z" fill="#6DE0F6"/>
<path d="M145.054 170.941C145.054 173.884 142.6 176.337 139.654 176.337C136.709 176.337 134.255 173.884 134.255 170.941C134.255 167.998 136.709 165.545 139.654 165.545C142.6 165.545 145.054 167.998 145.054 170.941Z" fill="#6DE0F6"/>
<path d="M127.137 130.965C127.137 132.191 126.155 133.417 124.683 133.417C123.455 133.417 122.228 132.436 122.228 130.965C122.228 129.493 123.21 128.512 124.683 128.512C125.91 128.757 127.137 129.738 127.137 130.965Z" fill="#6DE0F6"/>
<path d="M145.054 243.29C146.409 243.29 147.508 242.192 147.508 240.838C147.508 239.483 146.409 238.385 145.054 238.385C143.698 238.385 142.599 239.483 142.599 240.838C142.599 242.192 143.698 243.29 145.054 243.29Z" fill="#6DE0F6"/>
<path d="M144.318 99.5725C144.318 100.553 143.581 101.289 142.6 101.289C141.618 101.289 140.881 100.553 140.881 99.5725C140.881 98.5915 141.618 97.8557 142.6 97.8557C143.581 97.8557 144.318 98.5915 144.318 99.5725Z" fill="#6DE0F6"/>
<path d="M125.664 77.9903C126.071 77.9903 126.401 77.6609 126.401 77.2546C126.401 76.8482 126.071 76.5188 125.664 76.5188C125.258 76.5188 124.928 76.8482 124.928 77.2546C124.928 77.6609 125.258 77.9903 125.664 77.9903Z" fill="#6DE0F6"/>
<path d="M127.137 211.408C129.848 211.408 132.046 209.211 132.046 206.502C132.046 203.793 129.848 201.597 127.137 201.597C124.426 201.597 122.228 203.793 122.228 206.502C122.228 209.211 124.426 211.408 127.137 211.408Z" fill="#6DE0F6"/>
<path d="M127.137 146.416C127.137 147.642 126.155 148.868 124.683 148.868C123.455 148.868 122.228 147.887 122.228 146.416C122.228 144.944 123.21 143.963 124.683 143.963C125.91 144.208 127.137 145.189 127.137 146.416Z" fill="#6DE0F6"/>
<path d="M131.064 138.077C131.064 138.568 130.573 139.058 130.082 139.058C129.591 139.058 129.1 138.568 129.1 138.077C129.1 137.587 129.591 137.096 130.082 137.096C130.573 137.341 131.064 137.587 131.064 138.077Z" fill="#6DE0F6"/>
<path d="M141.127 180.996C141.127 182.222 140.145 182.958 139.163 182.958C137.936 182.958 137.2 181.977 137.2 180.996C137.2 179.77 138.182 179.034 139.163 179.034C140.145 178.789 141.127 179.77 141.127 180.996Z" fill="#6DE0F6"/>
</g>
<defs>
<linearGradient id="paint0_linear_190_46" x1="122.348" y1="297.411" x2="146.555" y2="450.362" gradientUnits="userSpaceOnUse">
<stop stop-color="#6EE8FC"/>
<stop offset="0.2204" stop-color="#6EE8FC"/>
<stop offset="0.4892" stop-color="#6EE1F8"/>
<stop offset="0.7742" stop-color="#D4088C"/>
<stop offset="1" stop-color="#D4088C"/>
</linearGradient>
<linearGradient id="paint1_linear_190_46" x1="-0.118464" y1="349.591" x2="275.671" y2="349.591" gradientUnits="userSpaceOnUse">
<stop stop-color="#A31FA9"/>
<stop offset="0.0667915" stop-color="#8B17A0"/>
<stop offset="0.1494" stop-color="#740F98"/>
<stop offset="0.2393" stop-color="#640A92"/>
<stop offset="0.3408" stop-color="#5B078F"/>
<stop offset="0.4785" stop-color="#58068E"/>
<stop offset="0.6264" stop-color="#4D22A3"/>
<stop offset="0.9436" stop-color="#3168DA"/>
<stop offset="1" stop-color="#2C75E4"/>
</linearGradient>
<linearGradient id="paint2_linear_190_46" x1="-0.118472" y1="381.137" x2="275.671" y2="381.137" gradientUnits="userSpaceOnUse">
<stop stop-color="#D4088C"/>
<stop offset="0.2258" stop-color="#D4088C"/>
<stop offset="0.5108" stop-color="#6EE1F8"/>
<stop offset="0.7796" stop-color="#6EE8FC"/>
<stop offset="1" stop-color="#6EE8FC"/>
</linearGradient>
<linearGradient id="paint3_linear_190_46" x1="19.437" y1="317.594" x2="231.737" y2="370.166" gradientUnits="userSpaceOnUse">
<stop stop-color="#8D139B"/>
<stop offset="0.1651" stop-color="#851BA1"/>
<stop offset="0.4284" stop-color="#6E33B2"/>
<stop offset="0.7551" stop-color="#4958CD"/>
<stop offset="1" stop-color="#2979E4"/>
</linearGradient>
<linearGradient id="paint4_linear_190_46" x1="48.8281" y1="317.593" x2="206.885" y2="356.733" gradientUnits="userSpaceOnUse">
<stop stop-color="#630692"/>
<stop offset="0.2262" stop-color="#5B0E94"/>
<stop offset="0.587" stop-color="#432399"/>
<stop offset="1" stop-color="#2142A1"/>
</linearGradient>
<linearGradient id="paint5_linear_190_46" x1="134.47" y1="352.812" x2="134.47" y2="0" gradientUnits="userSpaceOnUse">
<stop offset="0.0107527" stop-color="#25BFEC"/>
<stop offset="0.0453451" stop-color="#24B4E1"/>
<stop offset="0.2186" stop-color="#1F83B0"/>
<stop offset="0.3902" stop-color="#1B5A86"/>
<stop offset="0.5567" stop-color="#173A66"/>
<stop offset="0.7168" stop-color="#152350"/>
<stop offset="0.8678" stop-color="#131642"/>
<stop offset="1" stop-color="#13113D"/>
</linearGradient>
</defs>
</svg>
